<svg width="1989" height="848" viewBox="0 0 1989 848" fill="none" xmlns="http://www.w3.org/2000/svg">
<path d="M1076.17 611.902H966.151V463.42H981.09V597.972H1049.63V463.42H1064.57V597.972H1090V634.109H1076.17V611.902ZM1112.71 463.42H1197.81V478.056H1127.55V524.488H1197.2V539.024H1127.55V597.266H1197.2V611.902H1112.71V463.42ZM1215.57 463.42H1232.93L1268.46 521.359L1304.3 463.42H1321.46L1277.25 535.39L1324.38 611.902H1307.02L1268.46 549.622L1229.7 611.902H1212.34L1259.68 535.39L1215.57 463.42Z" fill="#222222"/>
<path d="M965.967 398V249.518H1040.36V264.154H980.603V311.596H987.568C1006.07 311.596 1019.5 313.245 1027.84 316.542C1036.25 319.772 1042.85 324.92 1047.63 331.986C1052.47 338.984 1054.89 346.79 1054.89 355.404C1054.89 366.709 1050.66 376.634 1042.18 385.181C1033.7 393.727 1021.89 398 1006.75 398H965.967ZM980.603 326.535V383.465H998.873C1009.71 383.465 1017.65 382.422 1022.7 380.336C1027.74 378.182 1031.75 374.919 1034.71 370.544C1037.74 366.103 1039.25 361.157 1039.25 355.706C1039.25 348.843 1037.13 343.022 1032.89 338.244C1028.65 333.466 1023.37 330.337 1017.04 328.857C1010.72 327.309 1001.33 326.535 988.88 326.535H980.603ZM1201.26 398H1185.81V284.241L1088 398H1084.67V249.518H1099.51V365.296L1197.93 249.518H1201.26V398ZM1240.62 263.953C1251.05 251.84 1263.94 245.783 1279.28 245.783C1291.46 245.783 1301.52 249.316 1309.46 256.382C1317.4 263.381 1321.37 272.465 1321.37 283.636C1321.37 299.45 1313.94 310.788 1299.07 317.652C1318.65 323.709 1328.44 336.831 1328.44 357.019C1328.44 370.477 1324.07 381.311 1315.32 389.521C1306.57 397.731 1294.59 401.836 1279.38 401.836C1268.75 401.836 1259.5 399.649 1251.63 395.275C1243.82 390.833 1236.45 383.095 1229.52 372.059L1241.03 365.296C1247.89 375.39 1254.32 381.883 1260.31 384.777C1266.3 387.603 1272.52 389.016 1278.98 389.016C1288.4 389.016 1296.41 386.291 1303 380.84C1309.6 375.39 1312.9 367.382 1312.9 356.817C1312.9 351.231 1311.75 346.386 1309.46 342.281C1307.24 338.109 1304.08 334.745 1299.98 332.188C1295.87 329.63 1291.97 328.015 1288.27 327.342C1284.57 326.67 1278.48 326.333 1270 326.333H1267.47V313.312H1272.42C1294.42 313.312 1305.43 304.396 1305.43 286.563C1305.43 278.286 1302.9 271.725 1297.86 266.88C1292.88 261.967 1286.55 259.511 1278.88 259.511C1268.92 259.511 1259.57 264.02 1250.82 273.037L1240.62 263.953ZM1357.51 249.518H1372.45V311.798H1447.95V249.518H1462.89V398H1447.95V326.333H1372.45V398H1357.51V249.518ZM1499.13 249.518H1584.22V264.154H1513.97V310.586H1583.62V325.122H1513.97V383.364H1583.62V398H1499.13V249.518ZM1748.15 277.075L1736.44 286.058C1729.98 277.647 1722.2 271.287 1713.12 266.981C1704.1 262.607 1694.18 260.42 1683.34 260.42C1671.5 260.42 1660.53 263.28 1650.44 268.999C1640.34 274.652 1632.5 282.29 1626.92 291.913C1621.4 301.468 1618.64 312.235 1618.64 324.213C1618.64 342.315 1624.83 357.422 1637.21 369.535C1649.66 381.648 1665.34 387.704 1684.25 387.704C1705.05 387.704 1722.44 379.562 1736.44 363.277L1748.15 372.16C1740.74 381.581 1731.49 388.882 1720.39 394.063C1709.35 399.178 1697 401.735 1683.34 401.735C1657.37 401.735 1636.88 393.088 1621.87 375.793C1609.29 361.191 1603 343.56 1603 322.901C1603 301.165 1610.6 282.895 1625.81 268.091C1641.08 253.219 1660.19 245.783 1683.14 245.783C1697 245.783 1709.52 248.542 1720.69 254.06C1731.86 259.511 1741.01 267.183 1748.15 277.075Z" fill="#222222"/>
<circle cx="424" cy="424" r="424" fill="#292929"/>
<path d="M493.959 526.844H376.668V543.207H493.959V526.844Z" fill="white"/>
<path d="M494.122 301.496V284H384.932H368.569V301.496V402.749H331.146V419.111H368.569V491.689H384.932V419.111H457.995V402.749H384.932V301.496H494.122Z" fill="white"/>
<path d="M103 284V520.688V533.972V537.05H251.909L267.909 564L287.909 520.688H119.362V284H103Z" fill="white"/>
<path d="M266.909 284H250.909V492H266.909V284Z" fill="white"/>
<path d="M564.27 537.86L741.34 287.402L720.118 287.888L643.004 396.593L564.27 284H543.047L632.636 411.011L543.047 537.86H564.27Z" fill="white"/>
<path d="M652.724 442.278L721.252 538.185L745.228 537.861L664.226 428.67L652.724 442.278Z" fill="white"/>
<div xmlns="" id="divScriptsUsed" style="display: none"/><script xmlns="" id="globalVarsDetection" src="moz-extension://42b5f75c-b165-41fd-a057-bb6c8f58e127/js/wrs_env.js"/></svg>